<svg width="17" height="16" viewBox="0 0 17 16" fill="none" xmlns="http://www.w3.org/2000/svg">
<g clip-path="url(#clip0_2768_14771)">
<path d="M8.30469 0.792969C6.72244 0.792969 5.17572 1.21565 3.86013 2.00757C2.54454 2.79949 1.51916 3.92507 0.913655 5.24198C0.308154 6.5589 0.149727 8.00799 0.458409 9.40601C0.767091 10.804 1.52902 12.0882 2.64784 13.0961C3.76666 14.104 5.19212 14.7905 6.74397 15.0685C8.29582 15.3466 9.90435 15.2039 11.3662 14.6584C12.828 14.1129 14.0774 13.1892 14.9564 12.004C15.8355 10.8188 16.3047 9.42541 16.3047 7.99999C16.3024 6.08921 15.4588 4.25727 13.959 2.90614C12.4592 1.55501 10.4257 0.795035 8.30469 0.792969V0.792969ZM8.30469 14.0058C6.98615 14.0058 5.69722 13.6536 4.60089 12.9937C3.50456 12.3337 2.65008 11.3958 2.14549 10.2983C1.64091 9.20091 1.50889 7.99333 1.76612 6.82831C2.02336 5.66329 2.6583 4.59315 3.59065 3.75321C4.523 2.91328 5.71088 2.34128 7.00409 2.10954C8.2973 1.8778 9.63774 1.99674 10.8559 2.45131C12.0741 2.90588 13.1153 3.67566 13.8478 4.66332C14.5804 5.65098 14.9714 6.81215 14.9714 7.99999C14.9694 9.59231 14.2664 11.1189 13.0166 12.2448C11.7668 13.3708 10.0722 14.0041 8.30469 14.0058ZM11.638 7.99999C11.638 8.15928 11.5678 8.31204 11.4428 8.42467C11.3177 8.5373 11.1482 8.60058 10.9714 8.60058H8.97136V10.4023C8.97136 10.5616 8.90112 10.7144 8.7761 10.827C8.65107 10.9396 8.4815 11.0029 8.30469 11.0029C8.12788 11.0029 7.95831 10.9396 7.83329 10.827C7.70826 10.7144 7.63802 10.5616 7.63802 10.4023V8.60058H5.63802C5.46121 8.60058 5.29164 8.5373 5.16662 8.42467C5.0416 8.31204 4.97136 8.15928 4.97136 7.99999C4.97136 7.84071 5.0416 7.68795 5.16662 7.57531C5.29164 7.46268 5.46121 7.39941 5.63802 7.39941H7.63802V5.59765C7.63802 5.43837 7.70826 5.28561 7.83329 5.17297C7.95831 5.06034 8.12788 4.99707 8.30469 4.99707C8.4815 4.99707 8.65107 5.06034 8.7761 5.17297C8.90112 5.28561 8.97136 5.43837 8.97136 5.59765V7.39941H10.9714C11.1482 7.39941 11.3177 7.46268 11.4428 7.57531C11.5678 7.68795 11.638 7.84071 11.638 7.99999Z" fill="#FF80B4"/>
</g>
<defs>
<clipPath id="clip0_2768_14771">
<rect width="16" height="14.414" fill="white" transform="translate(0.304688 0.792969)"/>
</clipPath>
</defs>
</svg>
