<svg width="46" height="46" viewBox="0 0 46 46" fill="none" xmlns="http://www.w3.org/2000/svg">
<path fill-rule="evenodd" clip-rule="evenodd" d="M38.4492 0.0957031C40.1709 0.0955881 41.8276 0.884834 43.0803 2.30196C44.333 3.71908 45.087 5.65696 45.188 7.71909L45.1992 8.1942V35.1892C45.1993 37.2549 44.5415 39.2425 43.3603 40.7455C42.1792 42.2484 40.564 43.153 38.8452 43.2742L38.4492 43.2877H6.94922C5.22749 43.2878 3.57081 42.4985 2.31813 41.0814C1.06545 39.6643 0.311477 37.7264 0.210469 35.6643L0.199219 35.1892V8.1942C0.199123 6.12851 0.85695 4.14086 2.03811 2.63793C3.21926 1.13499 4.83446 0.230388 6.55322 0.109201L6.94922 0.0957031H38.4492ZM40.6992 16.2927H4.69922V35.1892C4.69929 35.8504 4.90162 36.4885 5.26783 36.9827C5.63404 37.4768 6.13865 37.7924 6.68597 37.8698L6.94922 37.8887H38.4492C39.0003 37.8886 39.5322 37.6458 39.9441 37.2065C40.3559 36.7671 40.619 36.1617 40.6835 35.505L40.6992 35.1892V16.2927ZM16.6085 20.2448C17.0134 19.7606 17.5567 19.4795 18.1281 19.4586C18.6995 19.4377 19.2561 19.6784 19.6848 20.1321C20.1136 20.5857 20.3824 21.2181 20.4366 21.9008C20.4908 22.5836 20.3264 23.2655 19.9767 23.8081L19.79 24.0645L19.5177 24.3912H29.4492C30.0227 24.392 30.5743 24.6554 30.9913 25.1277C31.4083 25.6001 31.6592 26.2456 31.6929 26.9325C31.7265 27.6193 31.5402 28.2957 31.1721 28.8233C30.804 29.3509 30.2819 29.69 29.7125 29.7713L29.4492 29.7902H19.5177L19.7877 30.1168C20.1955 30.6015 20.4335 31.2549 20.453 31.9432C20.4725 32.6315 20.2719 33.3027 19.8924 33.8194C19.5129 34.3361 18.9832 34.6593 18.4116 34.7227C17.84 34.7862 17.2698 34.5851 16.8177 34.1607L16.6085 33.9339L12.4932 28.9992C12.1058 28.5344 11.8731 27.9159 11.8387 27.2599C11.8043 26.6038 11.9707 25.9553 12.3065 25.4359L12.4932 25.1821L16.6085 20.2448ZM38.4492 5.4947H6.94922C6.35248 5.4947 5.78019 5.77911 5.35823 6.28537C4.93627 6.79162 4.69922 7.47825 4.69922 8.1942V10.8937H40.6992V8.1942C40.6992 7.47825 40.4622 6.79162 40.0402 6.28537C39.6183 5.77911 39.046 5.4947 38.4492 5.4947Z" fill="white"/>
</svg>
