<svg width="46" height="46" viewBox="0 0 46 46" fill="none" xmlns="http://www.w3.org/2000/svg">
<g clip-path="url(#clip0_4311_5135)">
<path fill-rule="evenodd" clip-rule="evenodd" d="M33.0117 5.7207C33.5939 5.7207 34.1681 5.85625 34.6888 6.1166C35.2095 6.37696 35.6624 6.75497 36.0117 7.2207L41.0517 13.9407C41.3041 14.2725 41.4387 14.6789 41.4342 15.0957H41.4492V16.9707C41.4493 18.7976 40.7826 20.5618 39.5742 21.932V35.7207C39.5742 36.7153 39.1791 37.6691 38.4759 38.3724C37.7726 39.0756 36.8188 39.4707 35.8242 39.4707H9.57422C8.57966 39.4707 7.62583 39.0756 6.92257 38.3724C6.21931 37.6691 5.82422 36.7153 5.82422 35.7207V21.932C4.61583 20.5618 3.94911 18.7976 3.94922 16.9707V15.0957H3.96422C3.95979 14.6789 4.09438 14.2725 4.34672 13.9407L9.38672 7.2207C9.73602 6.75497 10.189 6.37696 10.7097 6.1166C11.2304 5.85625 11.8046 5.7207 12.3867 5.7207H33.0117ZM37.6992 16.9707H30.1992C30.1949 17.9438 30.569 18.8805 31.2424 19.5829C31.9159 20.2853 32.8361 20.6983 33.8085 20.7348C34.7809 20.7714 35.7294 20.4284 36.4537 19.7785C37.178 19.1286 37.6212 18.2226 37.6899 17.252L37.6992 16.9707ZM26.4492 16.9707H18.9492C18.9449 17.9438 19.3189 18.8805 19.9924 19.5829C20.6659 20.2853 21.5861 20.6983 22.5585 20.7348C23.5309 20.7714 24.4794 20.4284 25.2037 19.7785C25.928 19.1286 26.3712 18.2226 26.4398 17.252L26.4492 16.9707ZM15.1992 16.9707H7.69922C7.69487 17.9438 8.06894 18.8805 8.74243 19.5829C9.41592 20.2853 10.3361 20.6983 11.3085 20.7348C12.2809 20.7714 13.2294 20.4284 13.9537 19.7785C14.678 19.1286 15.1212 18.2226 15.1898 17.252L15.1992 16.9707Z" fill="white"/>
</g>
<defs>
<clipPath id="clip0_4311_5135">
<rect width="45" height="45" fill="white" transform="translate(0.199219 0.0957031)"/>
</clipPath>
</defs>
</svg>
