<svg width="36" height="46" viewBox="0 0 36 46" fill="none" xmlns="http://www.w3.org/2000/svg">
<path fill-rule="evenodd" clip-rule="evenodd" d="M0.199219 9.0957C0.199219 4.12514 3.99473 0.0957031 8.67674 0.0957031H21.393V9.0957C21.393 14.0663 25.1885 18.0957 29.8705 18.0957H34.1093V36.0957C34.1093 41.0663 30.3138 45.0957 25.6318 45.0957H8.67674C3.99473 45.0957 0.199219 41.0663 0.199219 36.0957V9.0957ZM8.67674 20.3457C7.50624 20.3457 6.55736 21.3531 6.55736 22.5957C6.55736 23.8383 7.50624 24.8457 8.67674 24.8457H12.9155C14.086 24.8457 15.0349 23.8383 15.0349 22.5957C15.0349 21.3531 14.086 20.3457 12.9155 20.3457H8.67674ZM8.67674 29.3457C7.50624 29.3457 6.55736 30.3531 6.55736 31.5957C6.55736 32.8383 7.50624 33.8457 8.67674 33.8457H17.1543C18.3248 33.8457 19.2736 32.8383 19.2736 31.5957C19.2736 30.3531 18.3248 29.3457 17.1543 29.3457H8.67674ZM27.0768 5.04298L26.7992 9.46218C26.7139 10.8205 27.7755 11.9474 29.0549 11.8569L33.2176 11.5622C35.0344 11.4337 35.8628 9.09315 34.5752 7.72624L30.6901 3.60166C29.4025 2.23474 27.1979 3.11415 27.0768 5.04298Z" fill="white"/>
</svg>
