<svg width="17" height="16" viewBox="0 0 17 16" fill="none" xmlns="http://www.w3.org/2000/svg">
<g clip-path="url(#clip0_2768_14780)">
<path d="M14.7502 2.66667H12.6835C12.5288 1.91428 12.1194 1.23823 11.5243 0.752479C10.9293 0.266727 10.185 0.000969683 9.41683 0L8.0835 0C7.31536 0.000969683 6.57104 0.266727 5.976 0.752479C5.38095 1.23823 4.97156 1.91428 4.81683 2.66667H2.75016C2.57335 2.66667 2.40378 2.7369 2.27876 2.86193C2.15373 2.98695 2.0835 3.15652 2.0835 3.33333C2.0835 3.51014 2.15373 3.67971 2.27876 3.80474C2.40378 3.92976 2.57335 4 2.75016 4H3.41683V12.6667C3.41789 13.5504 3.76942 14.3976 4.39431 15.0225C5.0192 15.6474 5.86643 15.9989 6.75016 16H10.7502C11.6339 15.9989 12.4811 15.6474 13.106 15.0225C13.7309 14.3976 14.0824 13.5504 14.0835 12.6667V4H14.7502C14.927 4 15.0965 3.92976 15.2216 3.80474C15.3466 3.67971 15.4168 3.51014 15.4168 3.33333C15.4168 3.15652 15.3466 2.98695 15.2216 2.86193C15.0965 2.7369 14.927 2.66667 14.7502 2.66667ZM8.0835 1.33333H9.41683C9.83035 1.33384 10.2336 1.46225 10.5712 1.70096C10.9089 1.93967 11.1644 2.27699 11.3028 2.66667H6.1975C6.33588 2.27699 6.59143 1.93967 6.92909 1.70096C7.26674 1.46225 7.66998 1.33384 8.0835 1.33333ZM12.7502 12.6667C12.7502 13.1971 12.5394 13.7058 12.1644 14.0809C11.7893 14.456 11.2806 14.6667 10.7502 14.6667H6.75016C6.21973 14.6667 5.71102 14.456 5.33595 14.0809C4.96088 13.7058 4.75016 13.1971 4.75016 12.6667V4H12.7502V12.6667Z" fill="#E53E3E"/>
<path d="M7.41667 11.9993C7.59348 11.9993 7.76304 11.9291 7.88807 11.8041C8.01309 11.6791 8.08333 11.5095 8.08333 11.3327V7.33268C8.08333 7.15587 8.01309 6.9863 7.88807 6.86128C7.76304 6.73625 7.59348 6.66602 7.41667 6.66602C7.23985 6.66602 7.07029 6.73625 6.94526 6.86128C6.82024 6.9863 6.75 7.15587 6.75 7.33268V11.3327C6.75 11.5095 6.82024 11.6791 6.94526 11.8041C7.07029 11.9291 7.23985 11.9993 7.41667 11.9993Z" fill="#E53E3E"/>
<path d="M10.0832 11.9993C10.26 11.9993 10.4296 11.9291 10.5546 11.8041C10.6796 11.6791 10.7498 11.5095 10.7498 11.3327V7.33268C10.7498 7.15587 10.6796 6.9863 10.5546 6.86128C10.4296 6.73625 10.26 6.66602 10.0832 6.66602C9.90636 6.66602 9.73679 6.73625 9.61177 6.86128C9.48674 6.9863 9.4165 7.15587 9.4165 7.33268V11.3327C9.4165 11.5095 9.48674 11.6791 9.61177 11.8041C9.73679 11.9291 9.90636 11.9993 10.0832 11.9993Z" fill="#E53E3E"/>
</g>
<defs>
<clipPath id="clip0_2768_14780">
<rect width="16" height="16" fill="white" transform="translate(0.75)"/>
</clipPath>
</defs>
</svg>
